<svg width="404" height="221" viewBox="0 0 404 221" fill="none" xmlns="http://www.w3.org/2000/svg">
<path d="M211.112 118.681C210.525 119.562 210.231 120.149 209.644 120.443C190.561 143.636 171.479 166.535 152.396 189.728C148.873 194.131 145.057 198.535 141.534 202.939C138.891 206.168 138.304 209.985 140.359 213.801C142.121 217.618 145.35 219.673 149.754 219.673C187.039 219.673 224.323 219.673 261.314 219.673C261.901 219.673 262.489 219.673 263.076 219.673V191.783H186.451C187.039 191.196 187.332 190.608 187.626 190.315C197.314 178.865 206.708 167.122 216.397 155.672C229.608 139.819 242.525 123.966 255.736 108.112C258.672 104.589 259.259 100.773 257.204 96.9563C255.443 92.8462 251.92 91.0847 247.516 91.0847C214.048 91.0847 180.58 91.0847 147.112 91.0847H145.057V118.681H211.112Z" fill="#F15824"/>
<path d="M403.386 0.368896H375.203L280.376 220.26H308.267L403.386 0.368896Z" fill="#F15824"/>
<path d="M95.7253 220.26H123.615L28.4954 0.368896H0.311768L95.7253 220.26Z" fill="#F15824"/>
</svg>
